<svg id="e69bfc09-a232-4bc9-a38d-d703f9168916" data-name="Icon" xmlns="http://www.w3.org/2000/svg" viewBox="0 0 36 36">
  <defs>
    <style>
      .ec522bf5-49ac-4481-b7f0-7dbc74a2e85b {
        fill: #e00;
      }
    </style>
  </defs>
  <path class="ec522bf5-49ac-4481-b7f0-7dbc74a2e85b" d="M18,9.62A.62.62,0,1,0,17.38,9,.61.61,0,0,0,18,9.62Z"/>
  <g>
    <path class="ec522bf5-49ac-4481-b7f0-7dbc74a2e85b" d="M6,24.62H30a.61.61,0,0,0,.62-.62V9A.61.61,0,0,0,30,8.38H21a.62.62,0,1,0,0,1.24h8.38V23.38H6.62V9.62H15a.62.62,0,0,0,0-1.24H6A.61.61,0,0,0,5.38,9V24A.61.61,0,0,0,6,24.62Z"/>
    <path class="ec522bf5-49ac-4481-b7f0-7dbc74a2e85b" d="M32,26.38H4a.62.62,0,1,0,0,1.24H32a.62.62,0,1,0,0-1.24Z"/>
    <path class="ec522bf5-49ac-4481-b7f0-7dbc74a2e85b" d="M15.12,14v4.38H13.88v-2.5a.63.63,0,0,0-1.26,0v2.5H11.38V17.12a.63.63,0,0,0-1.26,0v1.26H9.5a.62.62,0,0,0,0,1.24H17a.62.62,0,0,0,0-1.24h-.62V14a.63.63,0,0,0-1.26,0Z"/>
    <path class="ec522bf5-49ac-4481-b7f0-7dbc74a2e85b" d="M20.5,17.12H21a2.49,2.49,0,0,0,.3.73l-.32.33a.62.62,0,0,0,.88.88l.33-.32a2.49,2.49,0,0,0,.73.3v.46a.62.62,0,0,0,1.24,0V19a2.49,2.49,0,0,0,.73-.3l.33.32a.62.62,0,0,0,.88-.88l-.32-.33a2.49,2.49,0,0,0,.3-.73h.46a.62.62,0,0,0,0-1.24H26a2.49,2.49,0,0,0-.3-.73l.32-.33c.58-.56-.32-1.46-.88-.88l-.33.32a2.49,2.49,0,0,0-.73-.3V13.5a.62.62,0,0,0-1.24,0V14a2.49,2.49,0,0,0-.73.3l-.33-.32c-.56-.58-1.46.32-.88.88l.32.33a2.49,2.49,0,0,0-.3.73H20.5A.62.62,0,0,0,20.5,17.12Zm3-2a1.38,1.38,0,0,1,0,2.75A1.38,1.38,0,0,1,23.5,15.12Z"/>
  </g>
</svg>
